# xmcd
#
# Track frame offsets:
#	150
#	8203
#	26384
#	51544
#	70937
#	87164
#	105510
#	128096
#	145466
#	160091
#	178726
#	195754
#
# Disc length: 2789 seconds
#
# Revision: 1
# Processed by: cddbd v1.5.2PL0 Copyright (c) Steve Scherf et al.
# Submitted via: audiograbber 1.83.01
#
DISCID=990ae30c
DTITLE=Steve Marriner - Going Up
DYEAR=2007
DGENRE=Blues
TTITLE0=Shake It Upside Down
TTITLE1=Plaything
TTITLE2=Remember Me
TTITLE3=I'm A Lover Not A Fighter
TTITLE4=Going Up (To Get Down)
TTITLE5=Chasin' You Around
TTITLE6=Big Game
TTITLE7=El Encuentro
TTITLE8=The Same Thing Could Happen To You
TTITLE9=Sticks And Stones
TTITLE10=Funny Business
TTITLE11=Zulu Ripper
EXTD=
EXTT0=
EXTT1=
EXTT2=
EXTT3=
EXTT4=
EXTT5=
EXTT6=
EXTT7=
EXTT8=
EXTT9=
EXTT10=
EXTT11=
PLAYORDER=
